<?xml version="1.0" standalone="no"?>
<!DOCTYPE svg PUBLIC "-//W3C//DTD SVG 20010904//EN"
 "http://www.w3.org/TR/2001/REC-SVG-20010904/DTD/svg10.dtd">
<svg version="1.0" xmlns="http://www.w3.org/2000/svg"
 width="1500" height="400" viewBox="0 0 4834.000000 3942.000000"
 preserveAspectRatio="xMidYMid meet">

<g transform="translate(-5000.000000,3942.000000) scale(0.130000, -0.100000)"
fill="#103595" stroke="none">
<path d="M16352 39408 c-113 -14 -291 -62 -410 -111 -460 -186 -764 -559 -858
-1052 -23 -120 -24 -385 -1 -510 52 -287 165 -523 337 -708 68 -72 151 -127
1791 -1184 1729 -1114 2504 -1613 2743 -1765 l129 -82 -329 -42 c-4530 -575
-8854 -2134 -12974 -4677 -151 -94 -276 -171 -278 -172 -2 -2 966 -6082 984
-6182 l6 -33 -3746 0 -3746 0 0 -2495 0 -2495 270 0 270 0 0 -965 0 -965 -270
0 -270 0 0 -2495 0 -2495 4694 0 4694 0 6 -28 c3 -15 130 -805 282 -1757 151
-951 276 -1730 277 -1731 1 -1 3191 -1469 7088 -3262 l7087 -3261 7303 3259
c4017 1793 7307 3261 7311 3262 3 2 114 793 245 1758 l239 1755 4557 3 4557 2
0 2355 0 2355 -742 0 -743 0 -307 307 -308 308 312 312 313 313 737 0 738 0 0
2350 0 2350 -3347 3 c-1842 1 -3565 1 -3830 1 -268 -1 -483 3 -483 7 0 5 227
1678 505 3717 278 2040 505 3718 505 3729 0 41 -767 502 -1460 878 -2680 1454
-5904 2664 -8935 3355 -148 34 -276 63 -283 66 -10 3 -6 15 12 46 48 83 126
268 161 384 51 167 82 331 110 580 42 377 48 533 30 739 -85 977 -372 1755
-868 2359 -115 139 -355 368 -499 476 -465 349 -989 551 -1595 615 -182 19
-543 19 -729 0 -555 -59 -1089 -242 -1507 -519 -154 -101 -423 -322 -567 -465
-554 -551 -959 -1289 -1141 -2081 l-28 -125 30 -37 30 -38 -88 0 c-386 0 -591
-307 -646 -966 l-12 -149 -134 -3 -134 -3 6 79 6 79 -52 45 c-49 41 -691 548
-892 703 -49 38 -1235 972 -2635 2074 -1400 1103 -2573 2024 -2607 2048 -216
152 -576 223 -911 181z m216 -398 c152 -19 307 -82 464 -188 41 -28 430 -325
864 -659 3955 -3052 5514 -4253 5519 -4253 3 0 5 36 5 79 0 132 -27 140 269
-86 7 -5 -19 -422 -35 -548 -8 -66 -22 -151 -31 -189 -9 -42 -13 -85 -9 -110
13 -79 81 -146 149 -146 44 0 45 -3 22 -143 -19 -122 -45 -393 -45 -479 0 -65
1 -68 24 -68 13 0 53 -15 88 -33 l65 -32 1 160 c1 192 23 389 63 545 16 63 29
116 29 117 0 0 -25 15 -55 32 -63 35 -101 86 -114 151 -5 25 -16 74 -26 109
-24 91 -14 159 51 348 113 325 126 478 63 733 -19 76 -20 91 -9 155 25 143
113 359 175 433 35 41 69 42 89 3 18 -34 36 -137 36 -204 l0 -47 48 24 c26 13
65 29 88 36 41 12 41 13 53 80 15 82 54 148 103 174 36 19 36 19 63 -2 15 -12
40 -22 56 -22 44 0 59 41 80 224 56 473 172 880 367 1286 337 698 896 1281
1472 1535 182 80 577 196 835 245 401 76 852 65 1201 -31 197 -54 308 -96 489
-183 388 -188 735 -498 988 -881 101 -154 187 -345 187 -417 0 -35 -34 -59
-94 -65 l-43 -5 -119 158 c-247 332 -496 536 -704 580 -150 31 -265 -12 -410
-155 -182 -179 -270 -358 -395 -814 -77 -277 -126 -423 -189 -552 -51 -108
-133 -241 -160 -264 -11 -9 -81 8 -313 79 -332 102 -638 189 -756 215 -71 15
-80 15 -96 1 -18 -17 -77 -133 -70 -139 2 -2 94 -28 204 -57 1767 -471 2878
-1324 3340 -2563 l33 -88 -49 -49 c-55 -55 -142 -107 -241 -144 l-66 -25 -101
105 c-56 57 -101 108 -101 112 0 4 26 21 57 36 91 44 162 96 179 129 15 29 15
32 -24 111 -215 433 -601 877 -1068 1229 -366 276 -821 520 -1204 646 -126 41
-281 83 -287 77 -3 -3 83 -256 89 -261 2 -2 60 -30 129 -63 526 -248 1023
-672 1439 -1227 68 -90 200 -284 235 -344 14 -24 -11 -4 -187 150 -736 646
-1422 1087 -2048 1316 -544 200 -1108 282 -1741 253 -278 -13 -312 -9 -381 36
-57 36 -86 96 -101 203 l-12 93 -33 -54 c-93 -154 -109 -335 -58 -653 14 -91
7 -87 114 -51 170 59 416 91 697 91 178 0 216 -3 249 -18 44 -20 51 -5 -61
-138 l-72 -86 -73 -7 c-289 -27 -608 -111 -748 -197 l-53 -32 7 -96 c13 -185
40 -330 131 -710 31 -129 67 -305 81 -390 32 -200 59 -313 89 -378 31 -69 52
-69 140 -3 141 106 135 100 135 153 0 143 106 205 275 162 65 -17 189 -72 235
-105 l28 -20 164 54 c90 30 178 56 197 58 l34 3 65 -195 c63 -191 65 -198 70
-326 5 -146 -4 -191 -45 -224 -24 -19 -38 -20 -182 -18 -136 3 -169 0 -259
-21 l-103 -24 7 -71 c4 -39 9 -74 11 -78 2 -5 19 -8 36 -8 161 0 495 -196 523
-306 9 -36 -3 -241 -15 -262 -8 -14 -10 -10 -11 19 0 21 -11 53 -29 81 -96
151 -413 272 -976 374 -204 36 -219 41 -256 71 -40 34 -59 79 -59 139 l0 46
-56 -7 c-131 -16 -209 -59 -245 -132 -17 -35 -20 -52 -13 -72 16 -44 54 -40
119 13 66 55 93 57 156 17 55 -35 129 -104 129 -120 0 -7 -25 -38 -55 -70 -30
-32 -55 -63 -55 -69 0 -12 0 -12 150 -51 404 -105 722 -279 891 -488 50 -62
119 -177 119 -198 0 -3 -18 -5 -40 -5 -94 0 -173 -75 -192 -183 -2 -14 -19 -6
-88 44 -47 34 -178 124 -293 200 -805 535 -1569 873 -2227 983 l-135 23 -3
-100 c-3 -121 11 -292 28 -329 17 -37 44 -44 213 -57 969 -76 1776 -429 2364
-1033 288 -297 490 -600 752 -1127 134 -269 193 -370 306 -526 139 -191 231
-301 359 -433 172 -177 190 -188 301 -196 50 -4 99 -10 110 -13 11 -3 -14 30
-61 79 -44 47 -96 105 -115 129 l-34 44 29 -19 c48 -30 920 -668 939 -686 18
-17 18 -19 -18 -74 -21 -31 -42 -56 -48 -56 -6 0 -8 19 -5 45 l6 45 -32 -19
c-98 -59 -616 -361 -641 -373 -16 -9 -199 -75 -405 -148 -548 -194 -830 -298
-1150 -425 -874 -347 -1497 -683 -2081 -1122 -297 -223 -392 -326 -464 -507
-58 -142 -78 -265 -78 -461 0 -183 13 -287 60 -453 15 -54 22 -96 17 -101 -5
-5 -106 -58 -224 -119 l-215 -111 -1080 583 -1080 582 -700 560 c-385 308
-705 563 -712 567 -6 4 148 -260 344 -588 367 -615 386 -653 347 -685 -34 -29
-128 -17 -254 33 -630 248 -1449 338 -2155 236 -77 -11 -143 -23 -148 -28 -8
-8 11 -121 23 -134 3 -4 161 -41 351 -82 739 -162 1156 -279 1547 -436 304
-122 601 -293 772 -444 98 -86 183 -139 571 -351 559 -306 709 -398 709 -437
0 -25 -269 -361 -561 -702 -231 -270 -476 -546 -742 -837 l-181 -198 -3182 0
-3183 0 -36 32 c-22 18 -35 38 -32 47 2 9 739 1186 1637 2616 l1632 2600 -66
210 c-37 116 -66 218 -66 227 0 50 259 593 410 863 794 1418 1935 2541 3260
3209 457 231 886 397 1356 525 444 121 764 178 1101 194 l248 12 -110 74 c-60
40 -114 78 -120 83 -6 6 50 8 152 6 l162 -3 15 37 14 37 -3821 2512 c-2102
1382 -3851 2535 -3886 2563 -139 111 -251 280 -287 431 -21 92 -14 243 16 340
50 157 169 349 304 488 154 159 326 254 498 276 90 12 86 12 176 1z m4284
-5901 l3 -73 -215 -23 c-118 -12 -249 -24 -290 -25 l-74 -3 -12 80 c-6 44 -9
83 -5 86 5 5 349 44 546 61 37 4 42 -7 47 -103z m628 -14 c0 -3 -9 -5 -20 -5
-11 0 -20 7 -20 15 0 13 4 14 20 5 11 -6 20 -13 20 -15z m-1790 -101 c7 -47
11 -86 9 -88 -2 -2 -123 -20 -269 -40 -146 -21 -274 -40 -286 -43 -19 -4 -22
3 -38 82 -10 48 -15 89 -13 92 6 5 511 81 553 82 l31 1 13 -86z m-1156 -175
c10 -45 14 -85 9 -89 -7 -6 -509 -101 -552 -104 -10 -1 -20 22 -32 69 -27 102
-27 102 34 114 129 27 475 90 498 90 24 1 27 -4 43 -80z m-1144 -225 c12 -47
21 -86 19 -88 -10 -7 -563 -126 -567 -122 -10 10 -49 161 -43 167 3 4 112 30
241 59 129 29 249 56 265 60 60 16 61 15 85 -76z m13665 -105 c149 -33 272
-63 274 -64 4 -4 -40 -157 -48 -167 -4 -4 -90 12 -191 36 -102 24 -229 54
-283 66 -81 18 -97 25 -93 38 3 10 12 44 21 77 23 86 23 85 37 80 7 -2 135
-32 283 -66z m-14800 -160 c15 -44 25 -82 22 -85 -5 -6 -524 -146 -546 -148
-9 -1 -24 29 -42 82 -25 76 -26 84 -11 90 32 12 517 141 534 141 12 1 24 -21
43 -80z m15924 -120 c146 -39 269 -74 274 -78 13 -12 -46 -166 -63 -165 -19 2
-541 142 -546 147 -7 7 50 167 60 167 5 0 129 -32 275 -71z m-17041 -191 c16
-46 29 -84 28 -84 0 -1 -100 -32 -221 -69 -121 -37 -245 -76 -277 -85 l-56
-18 -33 84 c-17 47 -30 86 -28 88 8 6 524 165 541 165 11 1 25 -22 46 -81z
m18092 -107 c107 -32 229 -69 270 -81 41 -13 76 -24 78 -25 8 -6 -63 -165 -73
-165 -7 0 -100 27 -206 59 -107 33 -227 69 -266 81 -40 11 -73 24 -73 28 0 20
57 162 65 162 6 0 98 -26 205 -59z m-19194 -245 c19 -44 33 -80 31 -81 -1 -1
-123 -45 -272 -97 l-270 -95 -38 80 c-21 44 -34 83 -30 88 4 4 94 37 198 74
105 36 219 77 255 90 36 13 71 23 78 22 7 -1 29 -38 48 -81z m20636 -224 c10
-10 -52 -162 -67 -162 -8 0 -476 153 -532 175 -13 4 -7 24 41 137 l16 37 267
-90 c147 -49 270 -92 275 -97z m-21727 -158 c19 -42 35 -80 35 -84 0 -4 -44
-25 -97 -45 -54 -21 -170 -66 -258 -101 -88 -35 -164 -64 -170 -64 -15 0 -88
151 -78 160 4 4 114 49 243 99 129 50 244 96 255 101 33 14 34 13 70 -66z
m22562 -140 c142 -52 259 -97 261 -99 3 -3 -69 -165 -74 -165 -6 0 -519 192
-530 199 -15 8 54 161 72 161 8 0 130 -43 271 -96z m-23626 -295 c32 -64 38
-84 27 -90 -7 -5 -16 -9 -20 -9 -5 0 -116 -47 -249 -105 -133 -58 -242 -105
-244 -105 -11 0 -85 154 -78 161 9 9 501 227 515 228 4 1 26 -36 49 -80z
m24713 -131 c135 -56 246 -106 246 -112 -1 -25 -78 -151 -91 -148 -24 6 -504
204 -512 212 -5 4 9 42 30 84 33 66 41 76 59 72 12 -3 132 -52 268 -108z
m-25764 -330 c24 -40 44 -76 46 -79 4 -6 -515 -254 -519 -248 -17 22 -87 140
-87 147 0 5 17 17 38 27 128 63 468 224 473 225 4 0 26 -33 49 -72z m17588
-83 c28 -22 52 -45 52 -52 0 -7 -20 -33 -44 -58 l-43 -46 1146 -886 c1450
-1122 1351 -1045 1351 -1053 0 -9 -46 -26 -229 -86 -223 -72 -219 -69 -286
-168 l-58 -86 -27 18 c-14 9 -576 385 -1248 835 l-1222 818 -38 -30 c-20 -16
-62 -45 -93 -64 l-56 -36 -107 71 c-85 57 -104 74 -94 84 7 6 103 74 213 150
110 76 226 161 259 188 80 70 200 206 314 358 l96 128 30 -23 c17 -13 55 -41
84 -62z m9220 -36 c136 -61 251 -114 255 -118 6 -6 -52 -123 -79 -159 -2 -4
-514 225 -522 232 -4 4 41 97 66 134 8 12 19 22 24 22 5 0 120 -50 256 -111z
m-27838 -382 c25 -39 45 -75 45 -80 0 -6 -489 -267 -501 -267 -8 0 -95 143
-92 152 3 8 481 264 498 267 3 0 25 -32 50 -72z m28889 -112 l251 -124 -46
-76 c-26 -41 -50 -75 -54 -75 -6 0 -501 239 -509 246 -7 6 84 154 95 154 6 0
124 -56 263 -125z m-29896 -425 c26 -37 47 -72 47 -77 0 -5 -12 -16 -27 -24
-300 -170 -464 -261 -467 -258 -1 2 -26 36 -54 76 l-52 72 44 26 c100 58 451
255 456 255 3 -1 26 -32 53 -70z m30908 -92 c137 -73 249 -136 249 -141 0 -14
-93 -147 -103 -147 -5 0 -24 8 -41 19 -17 10 -125 69 -241 131 -115 61 -212
114 -214 116 -4 4 91 154 98 154 2 0 116 -60 252 -132z m-31902 -485 c28 -38
50 -70 51 -73 0 -3 -41 -30 -90 -59 -50 -29 -92 -56 -94 -60 -2 -3 2 -42 10
-86 22 -132 28 -121 -82 -135 -53 -6 -97 -10 -99 -8 -10 12 -47 303 -39 314
11 17 264 173 281 174 7 0 35 -30 62 -67z m32831 -38 c63 -38 116 -69 118 -70
4 -3 -38 -306 -43 -315 -2 -3 -47 -1 -100 4 l-97 9 5 41 c3 23 9 71 13 107 l6
66 -91 53 c-50 29 -91 56 -91 61 0 5 23 41 51 79 l51 70 31 -18 c18 -11 84
-50 147 -87z m-8142 -292 c22 -30 14 -113 -22 -217 -68 -197 -164 -287 -468
-437 -71 -35 -128 -67 -128 -70 0 -4 40 -17 89 -28 106 -25 251 -28 334 -6
153 40 288 151 354 291 20 44 38 81 39 83 3 4 121 -86 129 -99 3 -5 10 -49 15
-97 14 -125 19 -143 38 -143 9 0 36 -9 60 -20 23 -10 57 -22 76 -25 31 -6 38
-2 94 53 62 63 101 80 160 69 45 -7 215 -59 244 -74 45 -22 67 -80 79 -200 5
-59 14 -112 20 -119 15 -18 105 -37 137 -29 15 3 56 24 92 45 36 21 74 41 85
44 23 7 172 -73 242 -131 70 -56 69 -85 -3 -206 l-46 -77 38 -43 c47 -53 55
-58 77 -51 26 8 21 -11 -24 -95 -40 -73 -48 -81 -233 -227 -105 -83 -223 -172
-263 -199 -64 -42 -80 -48 -150 -56 -108 -12 -266 -53 -333 -87 -53 -26 -56
-30 -81 -97 -35 -95 -46 -115 -69 -115 -11 0 -63 21 -115 47 -112 56 -108 41
-73 250 12 73 19 136 15 139 -4 4 -55 -25 -114 -64 -121 -80 -185 -111 -225
-112 -30 0 -334 157 -342 177 -3 6 16 37 41 70 46 59 120 198 163 307 23 58
23 59 4 73 -21 16 -88 10 -115 -10 -9 -7 -89 -79 -178 -162 -88 -82 -172 -156
-184 -164 -22 -12 -37 -10 -153 23 -150 42 -305 76 -351 76 -40 0 -41 6 -4 45
16 16 62 102 101 190 81 181 95 202 260 376 66 70 131 140 145 157 l25 30 -51
-24 c-126 -61 -349 -137 -434 -149 -82 -11 -85 -13 -79 -45 11 -54 -16 -266
-50 -389 l-33 -120 28 -27 c16 -15 27 -29 26 -31 -6 -6 -294 -33 -352 -33 -59
0 -388 76 -444 103 -31 15 -49 68 -50 150 -1 31 -10 135 -21 231 -11 96 -21
208 -22 248 -3 73 -2 75 47 156 103 170 97 165 242 212 175 58 427 181 528
259 125 96 163 112 307 122 199 15 389 75 655 205 155 76 193 84 221 47z
m-24708 -595 c0 -7 18 -123 40 -258 21 -134 38 -246 37 -247 -7 -6 -189 -25
-194 -20 -5 6 -82 466 -83 499 0 13 15 18 73 26 105 14 127 14 127 0z m32843
-14 c11 -4 16 -12 12 -27 -2 -12 -19 -128 -36 -257 -17 -129 -32 -236 -33
-237 -1 -1 -46 3 -99 9 -66 7 -97 15 -97 23 0 19 59 456 66 484 5 23 6 23 87
17 45 -4 90 -9 100 -12z m-12213 -679 c158 -71 174 -76 515 -135 160 -28 328
-59 375 -70 318 -75 533 -197 650 -370 131 -192 346 -247 872 -222 493 24 578
16 748 -71 261 -133 345 -180 383 -210 101 -82 217 -127 328 -127 91 0 220
-24 321 -60 47 -16 193 -83 325 -148 393 -194 458 -207 703 -142 102 28 144
34 230 34 l105 1 118 -54 c439 -200 696 -414 843 -706 43 -85 46 -94 41 -155
-4 -69 -34 -151 -108 -304 -73 -148 -117 -168 -404 -185 -128 -8 -201 -18
-295 -40 -172 -41 -354 -74 -630 -116 -437 -66 -669 -115 -889 -190 -95 -32
-106 -33 -122 -19 -25 23 -70 130 -74 176 -3 48 8 42 -260 132 -529 178 -940
269 -2135 471 -311 52 -688 120 -838 150 -264 53 -605 131 -629 144 -15 8 4
64 47 135 31 51 67 95 224 273 68 78 105 140 106 178 0 59 -93 128 -215 160
-76 19 -227 19 -339 0 -47 -8 -188 -45 -314 -81 -359 -104 -476 -124 -612
-104 -86 12 -184 54 -247 106 -75 62 -63 86 99 194 138 93 198 145 198 172 0
24 -66 52 -172 74 -64 13 -113 15 -218 11 -155 -7 -237 -23 -540 -107 -270
-75 -406 -106 -534 -121 -173 -20 -396 4 -474 51 -92 56 10 165 301 322 308
166 850 398 1877 804 283 112 516 203 517 204 1 0 56 -25 123 -55z m6564 -175
c17 -9 60 -57 100 -114 137 -192 261 -316 317 -316 17 0 18 7 12 79 -5 73 -4
79 15 85 11 4 36 26 56 50 19 24 47 47 61 50 48 12 293 -98 371 -166 l34 -30
0 -124 0 -124 55 -72 c31 -40 69 -81 85 -91 27 -17 32 -17 88 -2 119 30 124
28 238 -89 66 -68 111 -124 129 -160 l27 -56 -16 -126 c-9 -69 -18 -129 -21
-134 -5 -8 -56 -39 -390 -235 -446 -263 -674 -432 -707 -526 -5 -16 -15 -29
-21 -29 -7 0 -25 26 -42 58 -48 92 -186 293 -278 404 -221 268 -571 556 -696
572 -25 4 -248 17 -496 31 -247 14 -474 28 -502 31 -49 6 -53 8 -53 33 0 35
41 121 71 148 45 41 92 52 261 63 369 24 527 90 638 267 23 35 87 153 143 261
110 212 152 267 209 275 72 10 283 1 312 -13z m-27031 -172 c15 -63 79 -489
74 -494 -3 -3 -46 -11 -97 -18 -65 -9 -93 -9 -96 -2 -4 13 -71 435 -76 481
l-3 30 80 11 c114 16 112 16 118 -8z m32525 -5 c24 -4 31 -10 28 -22 -3 -9
-19 -124 -37 -256 -17 -132 -33 -241 -34 -243 -3 -4 -189 19 -194 24 -4 4 57
467 66 498 4 16 12 17 72 12 36 -4 81 -10 99 -13z m-32363 -1015 c8 -23 83
-503 79 -507 -5 -6 -188 -30 -192 -26 -7 6 -82 489 -79 505 1 11 26 18 87 26
47 6 89 12 93 13 4 0 10 -5 12 -11z m32223 -17 l28 -6 -34 -255 c-19 -140 -36
-257 -37 -259 -5 -5 -187 17 -193 24 -5 5 54 473 64 503 3 10 20 12 74 6 39
-4 83 -9 98 -13z m-32053 -1033 c18 -109 75 -471 75 -482 0 -8 -33 -16 -97
-24 -53 -7 -97 -11 -98 -10 -5 6 -84 513 -80 516 2 2 43 10 92 17 48 7 91 13
95 14 4 0 10 -14 13 -31z m31878 6 c50 -5 57 -9 57 -28 0 -11 -14 -128 -32
-259 l-32 -239 -75 7 c-102 9 -121 14 -121 34 0 23 60 473 66 489 3 10 15 12
42 8 20 -3 63 -8 95 -12z m-2868 -379 c51 -29 102 -104 113 -167 11 -58 -7
-132 -41 -165 l-25 -25 -45 31 c-138 94 -289 68 -441 -78 -139 -133 -244 -304
-312 -506 -47 -140 -55 -234 -26 -292 20 -38 55 -74 98 -99 17 -10 13 -13 -31
-33 -71 -31 -139 -44 -193 -36 -147 22 -203 260 -122 515 25 79 25 125 0 193
-26 69 -70 120 -189 216 -108 88 -217 200 -204 211 4 5 40 20 78 35 89 35 294
138 361 180 l51 33 116 -58 c63 -32 136 -62 162 -65 64 -10 152 9 265 58 142
60 198 76 274 76 56 1 77 -4 111 -24z m-11768 -610 c50 -13 140 -43 200 -67
l108 -44 3 -95 c4 -97 -14 -542 -24 -616 l-6 -43 -1174 0 -1174 0 0 -630 0
-630 -1160 0 c-638 0 -1160 2 -1160 5 0 12 1194 961 1475 1171 562 423 911
610 1070 574 39 -9 39 -8 97 55 72 78 161 146 252 192 130 66 290 94 616 108
111 5 427 31 580 49 67 7 206 -6 297 -29z m-17041 -277 c22 -139 38 -256 35
-260 -12 -13 -183 -31 -190 -19 -10 15 -85 500 -79 506 6 7 111 22 158 24 l36
1 40 -252z m31527 236 c52 -5 67 -10 67 -23 0 -9 -14 -126 -32 -260 l-32 -243
-91 7 c-49 3 -94 10 -99 15 -8 8 46 469 60 508 2 9 14 12 31 8 16 -3 58 -8 96
-12z m-13408 -292 c116 -39 335 -112 489 -162 153 -50 291 -97 307 -105 30
-16 33 -26 44 -182 l6 -83 -626 0 -626 0 6 308 c3 169 8 321 11 338 l4 32 88
-38 c48 -20 182 -69 297 -108z m-17991 -749 c14 -70 77 -485 74 -488 -6 -6
-188 -28 -193 -24 -5 5 -86 511 -83 515 4 3 136 21 170 23 21 1 27 -4 32 -26z
m31325 -27 c-1 -70 -65 -487 -74 -487 -5 -1 -49 2 -97 6 -86 7 -88 8 -88 33 0
26 58 468 64 487 3 7 35 7 100 1 l96 -9 -1 -31z m-7663 -859 c3 -3 4 -21 2
-42 l-3 -36 -45 47 -45 46 43 -5 c24 -3 46 -7 48 -10z m7519 -148 c5 -5 -32
-9 -93 -9 -87 0 -102 2 -102 16 0 14 11 15 93 9 50 -4 96 -11 102 -16z
m-32053 -946 l718 -718 0 -1140 0 -1140 -295 -295 -295 -295 295 -295 295
-295 0 -1310 0 -1310 -712 -712 -713 -713 -2772 0 -2773 0 0 1010 0 1010 270
0 270 0 0 2450 0 2450 -270 0 -270 0 0 1010 0 1010 2767 0 2768 0 717 -717z
m23456 -2 l712 -719 0 -1144 0 -1144 -296 -289 -296 -288 296 -296 296 -296 0
-1310 0 -1310 -712 -712 -713 -713 -2772 0 -2773 0 0 1010 0 1010 270 0 270 0
0 2450 0 2450 -270 0 -270 0 0 1010 0 1010 2773 0 2772 0 713 -719z m-16668
-1556 l0 -1015 -867 2 -868 3 -3 143 -3 142 -669 0 -670 0 0 -615 0 -615 155
0 155 0 0 150 0 150 865 0 865 0 0 -1170 0 -1170 -865 0 -865 0 0 150 0 150
-155 0 -155 0 2 -617 3 -618 667 -3 667 -2 3 152 3 153 868 3 867 2 0 -1020 0
-1020 -2825 0 -2825 0 0 865 0 865 230 0 230 0 0 2105 0 2105 -230 0 -230 0 0
870 0 870 2825 0 2825 0 0 -1015z m3370 145 l0 -870 -230 0 -230 0 0 -2105 0
-2105 230 0 230 0 0 -865 0 -865 -1520 0 -1520 0 0 865 0 865 230 0 230 0 0
2105 0 2105 -230 0 -230 0 0 870 0 870 1520 0 1520 0 0 -870z m5559 253 l611
-616 0 -754 0 -753 -1060 0 -1060 0 0 382 0 383 -117 117 -118 118 -565 0
-565 0 -122 -122 -123 -123 0 -381 0 -382 124 -116 124 -116 1125 0 1125 0
616 -622 616 -623 0 -1115 0 -1115 -612 -612 -613 -613 -1695 0 -1695 0 -613
613 -612 612 0 738 0 737 1055 0 1055 0 0 -357 0 -358 127 -127 128 -128 555
0 555 1 123 119 122 118 0 373 0 374 -122 122 -123 123 -1127 0 -1128 0 -610
606 -610 607 0 1141 0 1141 612 612 613 613 1697 0 1696 0 611 -617z m13999 2
l612 -614 0 -2613 0 -2613 -612 -612 -613 -613 -1695 0 -1695 0 -613 613 -612
612 0 2610 0 2610 611 618 611 617 1697 0 1698 0 611 -615z m4642 -255 l0
-870 -147 0 -148 0 455 -455 455 -455 453 452 452 453 -147 5 -148 5 -3 868
-2 867 1775 0 1775 0 0 -870 0 -870 -308 0 -307 0 -1053 -1053 -1054 -1054
1059 -1051 1058 -1052 303 0 302 0 0 -865 0 -865 -1775 0 -1775 0 0 865 0 865
157 0 158 0 -460 460 -460 460 -452 -452 c-249 -249 -453 -456 -453 -460 0 -5
65 -8 145 -8 l145 0 0 -865 0 -865 -1830 0 -1830 0 0 865 0 865 361 0 361 0
1059 1052 c582 579 1058 1056 1057 1060 -2 3 -476 477 -1055 1052 l-1052 1046
-363 2 -363 3 -3 868 -2 867 1830 0 1830 0 0 -870z m-31616 -8327 c3 -16 8
-49 12 -75 7 -54 8 -53 -103 -64 -40 -4 -76 -7 -80 -8 -8 -1 -32 110 -33 152
0 21 3 22 99 22 l99 0 6 -27z m27862 -20 c-4 -27 -9 -65 -12 -86 l-6 -39 -82
7 c-121 10 -119 9 -112 63 4 26 9 59 12 75 l6 27 100 0 100 0 -6 -47z m-27761
-625 c5 -15 73 -438 77 -483 l3 -29 -95 -12 c-52 -7 -97 -11 -99 -9 -8 9 -83
506 -77 513 4 3 44 12 89 18 45 6 86 12 90 13 4 0 10 -5 12 -11z m27593 -3
c45 -4 82 -8 82 -9 -1 -24 -72 -511 -75 -514 -7 -7 -185 10 -190 18 -3 5 8
109 25 232 40 301 38 290 58 284 9 -2 54 -8 100 -11z m-22318 -771 c91 -66
179 -129 195 -141 l30 -21 300 218 c165 120 301 217 302 216 2 -1 -49 -161
-113 -355 -109 -333 -114 -354 -97 -366 10 -7 146 -105 302 -219 l284 -206
-374 -2 -373 -3 -116 -355 -116 -355 -113 345 c-61 190 -114 351 -116 357 -3
10 -91 13 -373 15 l-369 3 289 210 c159 116 293 215 297 220 5 6 -43 165 -105
355 -62 190 -113 348 -113 353 -1 4 47 -28 107 -71 59 -43 181 -132 272 -198z
m16765 43 c143 -104 265 -193 271 -198 6 -5 126 76 312 211 166 120 302 216
302 213 0 -4 -49 -158 -110 -344 -60 -185 -110 -344 -110 -352 0 -8 133 -111
295 -228 l294 -214 -369 -3 -369 -2 -117 -358 -117 -357 -116 355 -117 355
-369 5 -370 5 289 210 c159 116 293 213 299 216 5 4 -38 150 -98 335 -59 181
-111 341 -116 357 l-8 27 32 -22 c18 -12 149 -108 292 -211z m-21871 -324 c10
-46 76 -463 76 -477 0 -9 -31 -17 -96 -25 -53 -6 -98 -10 -100 -9 -4 5 -83
512 -80 515 5 5 117 20 158 22 32 1 37 -2 42 -26z m27358 9 c5 -5 -59 -514
-66 -518 -11 -6 -196 22 -196 30 0 17 60 459 66 485 5 23 6 23 97 16 51 -3 95
-10 99 -13z m-18724 -888 c425 -309 478 -345 495 -334 11 7 227 163 480 346
252 184 461 333 463 332 2 -2 -78 -253 -176 -558 -99 -305 -180 -559 -180
-565 1 -5 215 -165 477 -355 l476 -345 -594 -5 -593 -5 -181 -558 c-100 -306
-184 -559 -187 -562 -3 -3 -21 43 -40 102 -19 60 -102 314 -183 565 l-149 458
-593 2 -594 3 480 348 479 348 -28 87 c-16 48 -90 276 -165 507 -75 231 -144
446 -155 478 -10 31 -16 57 -14 57 3 0 220 -156 482 -346z m9191 -21 c244
-178 446 -323 450 -323 3 0 219 155 480 345 261 190 476 343 479 341 2 -2 -78
-255 -177 -561 -100 -306 -179 -560 -176 -565 3 -5 218 -163 477 -352 l473
-343 -594 -5 -593 -5 -179 -550 c-98 -302 -182 -557 -185 -565 -6 -14 -48 110
-296 872 l-81 248 -592 2 -593 3 480 348 c308 224 478 353 474 362 -17 45
-356 1097 -356 1106 0 12 -38 39 509 -358z m-17650 -190 c7 -49 15 -97 18
-109 3 -15 31 -32 101 -63 53 -24 101 -47 106 -51 8 -8 -70 -160 -83 -160 -4
0 -74 31 -156 69 l-150 69 -24 151 c-13 83 -22 153 -20 156 6 5 122 22 165 24
l31 1 12 -87z m26983 78 c32 -4 59 -9 61 -11 3 -3 -5 -74 -17 -158 l-21 -153
-135 -60 c-74 -34 -145 -65 -157 -69 -20 -8 -26 -2 -63 64 -22 40 -40 78 -40
83 0 5 45 29 101 53 55 24 102 47 105 51 2 4 9 42 14 85 17 127 15 124 58 123
20 0 63 -4 94 -8z m-12692 -438 c-222 -673 -410 -1267 -402 -1272 5 -3 269
-195 587 -426 l577 -420 -726 -3 -725 -2 -125 -383 c-68 -210 -169 -518 -223
-684 -54 -167 -100 -303 -103 -303 -3 0 -104 307 -226 683 l-221 682 -727 5
-727 5 577 420 c318 231 582 423 587 426 6 4 -84 294 -212 689 -122 376 -219
685 -217 687 2 3 264 -183 581 -414 316 -230 579 -419 583 -420 4 -2 270 189
592 422 321 234 585 425 586 425 2 0 -15 -53 -36 -117z m11829 -167 c23 -40
41 -78 41 -83 0 -10 -519 -248 -525 -241 -1 2 -21 38 -44 80 l-42 78 43 20
c33 16 476 216 485 219 1 1 20 -32 42 -73z m-25123 -50 c137 -62 250 -118 251
-123 4 -12 -75 -153 -86 -153 -7 0 -502 228 -507 233 -4 3 86 157 91 157 2 0
115 -51 251 -114z m1016 -467 c134 -61 248 -114 255 -117 7 -5 -3 -30 -31 -79
-23 -40 -45 -75 -48 -79 -4 -3 -122 47 -262 112 l-256 117 19 31 c10 17 31 52
46 79 15 26 29 47 31 47 2 0 112 -50 246 -111z m23058 35 c23 -41 40 -77 38
-79 -15 -16 -523 -234 -528 -228 -15 17 -84 152 -80 155 13 10 506 228 517
228 6 0 30 -34 53 -76z m-22014 -515 c131 -61 240 -112 241 -113 2 -2 -80
-143 -89 -151 -8 -8 -499 217 -505 231 -2 6 15 43 38 83 31 55 45 70 58 66 10
-3 125 -55 257 -116z m20962 44 c23 -42 41 -77 40 -79 -2 -1 -120 -54 -263
-118 -199 -88 -263 -112 -271 -103 -6 7 -28 42 -48 80 l-37 67 58 25 c32 14
146 66 253 114 107 49 202 90 210 90 9 1 33 -31 58 -76z m-19952 -509 l254
-117 -33 -57 c-17 -31 -39 -67 -47 -80 l-16 -22 -248 113 c-136 63 -250 119
-252 125 -4 10 74 154 83 154 2 0 119 -52 259 -116z m18897 38 c22 -41 36 -77
31 -81 -13 -11 -516 -233 -519 -229 -19 19 -85 152 -78 159 15 15 498 228 512
226 8 -1 32 -35 54 -75z m-17876 -508 l253 -117 -32 -58 c-18 -32 -39 -67 -48
-79 l-16 -22 -245 113 c-134 61 -248 115 -253 120 -8 7 69 159 82 159 4 0 121
-52 259 -116z m16822 40 c23 -42 41 -78 39 -79 -2 -2 -120 -56 -263 -120 -243
-109 -260 -115 -273 -98 -13 18 -73 127 -76 138 -1 6 502 234 520 235 5 0 29
-34 53 -76z m-15801 -510 l252 -117 -36 -66 c-20 -36 -42 -72 -49 -79 -9 -10
-59 9 -259 101 -135 63 -249 117 -253 120 -6 7 76 157 86 157 3 0 120 -52 259
-116z m14749 38 l41 -78 -264 -119 c-146 -65 -266 -116 -268 -114 -17 19 -85
153 -80 158 11 11 499 229 514 230 9 0 32 -31 57 -77z m-13760 -493 c120 -56
233 -108 251 -116 l33 -14 -37 -67 c-20 -37 -42 -73 -49 -80 -9 -10 -59 9
-259 101 -135 63 -249 117 -252 120 -7 7 77 157 87 157 4 0 105 -46 226 -101z
m12703 25 c23 -42 38 -80 33 -83 -7 -7 -459 -209 -504 -226 -13 -5 -27 11 -59
70 -24 43 -38 80 -34 85 12 11 495 228 511 229 6 1 30 -33 53 -75z m-11653
-509 c136 -63 248 -118 248 -122 0 -12 -79 -153 -86 -153 -7 0 -500 227 -506
234 -6 5 80 156 89 156 3 0 118 -52 255 -115z m10600 37 l43 -79 -265 -118
c-146 -65 -266 -117 -268 -114 -2 2 -23 39 -46 82 -38 68 -40 78 -25 84 9 3
126 55 258 114 133 59 246 108 251 108 6 1 29 -34 52 -77z m-9585 -503 c134
-62 247 -115 251 -119 6 -5 -56 -128 -80 -159 -3 -4 -513 229 -513 236 0 10
86 153 92 153 4 0 117 -50 250 -111z m8524 45 c20 -36 37 -72 38 -80 1 -11
-77 -51 -253 -130 -140 -63 -258 -114 -262 -114 -11 0 -91 151 -84 158 9 10
498 230 512 231 7 1 29 -29 49 -65z m-7503 -515 c133 -61 246 -115 251 -119 6
-6 -57 -131 -80 -159 -5 -6 -515 232 -512 238 22 47 84 151 91 151 4 0 117
-50 250 -111z m6455 34 c23 -42 39 -79 35 -83 -12 -10 -510 -230 -520 -230 -4
0 -27 36 -50 79 l-43 79 258 115 c141 64 262 116 267 116 6 1 29 -34 53 -76z
m-5434 -504 c133 -61 245 -115 250 -119 6 -6 -56 -129 -80 -158 -4 -6 -515
231 -512 237 24 50 85 151 92 151 5 0 118 -50 250 -111z m4362 64 c15 -27 35
-62 46 -79 l18 -32 -265 -117 c-146 -65 -267 -116 -269 -114 -13 13 -87 152
-83 155 6 7 510 233 519 234 4 0 19 -21 34 -47z m-3342 -534 c133 -61 245
-114 249 -119 7 -6 -59 -139 -78 -158 -3 -3 -505 225 -513 232 -5 6 83 156 92
156 5 0 118 -50 250 -111z m2305 35 c23 -42 39 -80 34 -84 -21 -21 -515 -232
-523 -224 -18 18 -81 137 -77 147 3 9 491 234 513 236 5 1 29 -33 53 -75z
m-890 -403 c17 -41 29 -76 27 -79 -9 -9 -441 -205 -453 -205 -23 -1 -433 196
-433 208 0 10 57 144 64 152 2 2 80 -33 175 -77 95 -44 180 -80 189 -79 9 0
100 38 202 83 102 46 188 80 191 77 4 -3 21 -39 38 -80z"/>
<path d="M26430 37370 c-81 -5 -106 -12 -170 -42 -304 -147 -623 -514 -865
-997 -31 -62 -61 -124 -66 -137 -8 -22 -6 -24 15 -18 14 3 98 0 188 -6 90 -7
174 -13 187 -14 20 -1 26 7 41 49 80 233 405 671 804 1083 l90 92 -65 -2 c-35
0 -107 -4 -159 -8z"/>
<path  d="M18041 36531 c-39 -66 -71 -123 -71 -128 1 -13 418 -298 432 -295 7
1 77 26 155 55 l143 53 -282 209 c-155 116 -287 213 -294 217 -8 5 -35 -32
-83 -111z"/>
<path d="M25909 36021 c-68 -6 -86 -13 -190 -70 -141 -78 -149 -85 -83 -77
148 18 343 27 538 24 l219 -3 44 68 43 67 -248 -2 c-136 0 -281 -4 -323 -7z"/>
<path d="M18913 35902 c-78 -37 -142 -69 -143 -72 0 -6 3811 -2567 3831 -2575
16 -6 210 77 211 91 1 9 -3737 2624 -3750 2623 -4 0 -71 -30 -149 -67z"/>
<path d="M25656 32798 c-36 -51 -8 -127 65 -175 41 -27 48 -28 163 -28 67 0
129 3 139 7 17 7 17 10 -5 49 -12 23 -39 56 -59 74 -30 27 -47 34 -101 39 -36
4 -88 18 -117 32 -65 29 -66 29 -85 2z"/>
<path d="M22973 26313 c-12 -73 -9 -754 5 -948 24 -337 56 -604 82 -697 10
-35 15 -38 81 -58 39 -12 73 -20 75 -17 2 2 -5 50 -15 108 -47 259 -56 357
-56 619 0 221 3 268 21 350 48 217 141 373 277 462 l37 25 -237 98 c-131 53
-243 99 -250 102 -7 3 -15 -13 -20 -44z"/>
<path d="M4480 18745 l0 -645 607 0 608 0 147 147 148 148 0 350 0 350 -148
148 -147 147 -608 0 -607 0 0 -645z"/>
<path d="M4480 15285 l0 -795 613 0 612 1 143 139 142 139 0 515 0 515 -142
140 -143 140 -612 1 -613 0 0 -795z"/>
<path d="M27930 18745 l0 -645 607 0 608 0 147 147 148 148 0 355 0 355 -149
143 -149 142 -606 0 -606 0 0 -645z"/>
<path d="M27930 15285 l0 -795 611 0 611 0 144 137 144 136 0 522 0 521 -144
137 -144 137 -611 0 -611 0 0 -795z"/>
<path d="M34457 18292 l-117 -117 0 -1868 0 -1868 123 -119 122 -119 560 -1
560 0 117 117 118 118 0 1870 0 1870 -116 118 -116 117 -567 0 -566 0 -118
-118z"/>
<path d="M15621 9599 c14 -19 117 -160 229 -314 111 -154 206 -284 211 -289 5
-6 9 56 9 145 l0 155 -226 164 c-125 91 -232 167 -238 169 -6 2 1 -11 15 -30z"/>
<path d="M16312 9303 c-127 -175 -230 -319 -228 -320 1 -1 67 19 146 45 l144
47 88 269 c49 148 87 271 85 273 -2 2 -108 -139 -235 -314z"/>
<path d="M15537 8903 c-125 -91 -226 -167 -224 -169 1 -2 173 52 380 119 l378
122 -143 47 c-78 27 -147 48 -153 48 -5 -1 -112 -75 -238 -167z"/>
<path d="M16102 8938 c14 -18 55 -75 92 -125 l68 -93 296 1 c163 0 293 2 287
4 -36 14 -754 245 -760 245 -4 0 4 -15 17 -32z"/>
<path d="M15975 8840 l-87 -120 90 -273 90 -272 1 393 c1 215 -1 392 -3 392
-2 0 -43 -54 -91 -120z"/>
<path d="M32426 9628 c4 -7 111 -154 236 -327 126 -173 227 -315 225 -317 -1
-2 -68 17 -148 43 l-145 45 -232 -168 c-127 -92 -230 -169 -228 -171 1 -2 171
51 375 118 205 66 375 119 377 117 2 -2 -36 -59 -85 -126 l-89 -122 64 -197
c35 -109 77 -236 93 -283 l30 -85 -2 410 -2 411 151 48 151 48 28 87 c77 234
153 471 150 471 -1 0 -108 -145 -236 -322 l-234 -322 -5 154 -5 153 -238 174
c-131 95 -235 168 -231 161z"/>
<path d="M32910 8965 c0 -4 39 -60 87 -126 l87 -119 295 0 c162 0 292 2 290 4
-2 2 -168 56 -369 121 -201 65 -371 120 -377 122 -7 3 -13 2 -13 -2z"/>
<path d="M19101 8443 c7 -20 744 -1032 752 -1032 4 -1 7 109 7 243 l0 244
-347 253 c-192 139 -363 264 -382 278 -19 14 -32 21 -30 14z"/>
<path d="M20242 7928 c-209 -288 -379 -524 -378 -525 1 -1 108 32 238 74 l235
76 52 161 c28 89 94 290 145 449 52 158 92 287 91 287 -2 0 -174 -235 -383
-522z"/>
<path d="M18999 7279 c-338 -245 -415 -303 -384 -287 22 12 1226 400 1230 397
2 -2 -46 -71 -106 -154 -60 -82 -125 -172 -144 -200 l-34 -50 144 -444 c80
-244 147 -446 150 -449 3 -3 4 289 3 649 l-3 654 -230 77 c-126 42 -235 76
-241 77 -6 1 -180 -121 -385 -270z"/>
<path d="M19870 7386 c0 -4 63 -94 141 -201 l141 -195 472 1 c259 0 467 2 461
5 -8 3 -1120 366 -1192 388 -13 4 -23 5 -23 2z"/>
<path d="M28271 8429 c13 -19 185 -256 382 -528 197 -271 357 -495 355 -497
-2 -1 -107 30 -233 71 -127 41 -235 73 -240 71 -19 -7 -746 -538 -742 -542 2
-2 273 84 603 191 329 107 603 194 607 192 4 -1 -57 -91 -136 -200 l-144 -198
73 -227 c40 -125 107 -328 148 -452 l74 -225 -1 656 -2 656 242 78 c237 76
243 79 252 109 9 28 266 821 277 856 9 25 -2 11 -387 -520 l-374 -515 -5 249
-5 250 -280 203 c-154 112 -327 238 -384 280 -88 64 -100 70 -80 42z"/>
<path d="M29035 7379 c5 -8 69 -98 144 -201 l135 -188 470 0 c258 0 467 2 465
4 -3 3 -1107 363 -1198 391 -18 6 -22 4 -16 -6z"/>
<path d="M23146 7579 c4 -8 212 -295 461 -638 249 -343 451 -626 449 -629 -3
-2 -131 37 -286 87 -154 51 -286 88 -293 84 -22 -13 -892 -646 -906 -659 -16
-15 11 -6 864 271 336 109 616 202 623 208 9 7 12 82 12 311 l0 302 -432 315
c-497 361 -504 366 -492 348z"/>
<path d="M24543 6952 c-254 -350 -461 -638 -458 -640 2 -2 131 38 287 88 l283
92 177 546 c97 300 176 547 175 548 -1 1 -210 -284 -464 -634z"/>
<path d="M24081 6292 c0 -4 78 -113 173 -242 l172 -235 574 -2 c316 -1 571 0
565 2 -5 3 -309 101 -675 220 -366 119 -698 227 -737 240 -40 13 -73 21 -72
17z"/>
<path  d="M23891 6054 c-96 -131 -175 -246 -175 -254 0 -8 78 -257 174 -553
l175 -537 3 395 c1 217 1 573 0 792 l-3 396 -174 -239z"/>
</g>
</svg>
